<svg xmlns="http://www.w3.org/2000/svg" xmlns:xlink="http://www.w3.org/1999/xlink" width="500"
  zoomAndPan="magnify" viewBox="0 0 375 374.999991" height="500" preserveAspectRatio="xMidYMid meet"
  version="1.0">
  <rect x="-37.5" width="450" fill="none" y="-37.499999" height="449.999989" fill-opacity="1" />
  <path fill="#000000"
    d="M 187.5 375 C 84.074219 375 0 290.925781 0 187.5 C 0 84.074219 84.148438 0 187.5 0 C 237.601562 0 284.699219 19.5 320.101562 54.898438 C 355.5 90.300781 375 137.398438 375 187.5 C 375 290.925781 290.925781 375 187.5 375 Z M 187.5 12.226562 C 90.824219 12.226562 12.226562 90.824219 12.226562 187.5 C 12.226562 284.175781 90.824219 362.773438 187.5 362.773438 C 284.175781 362.773438 362.773438 284.175781 362.773438 187.5 C 362.773438 140.699219 344.550781 96.675781 311.476562 63.523438 C 278.398438 30.375 234.300781 12.226562 187.5 12.226562 Z M 187.5 12.226562 "
    fill-opacity="1" fill-rule="nonzero" />
  <path fill="#000000"
    d="M 252.082031 337.882812 C 246.808594 331.734375 241.445312 325.628906 236.085938 319.570312 C 209.542969 289.390625 182.421875 259.742188 155.023438 230.332031 C 144.921875 219.789062 132.34375 204.167969 119.488281 196.78125 C 113.402344 193.132812 111.414062 185.234375 115.046875 179.152344 C 116.261719 177.125 117.992188 175.523438 119.9375 174.457031 C 123.714844 172.40625 126.898438 169.824219 129.886719 167.09375 C 144.300781 152.921875 157.074219 137.234375 170.675781 122.316406 C 198.222656 92.777344 226.070312 63.496094 254.386719 34.679688 C 262.480469 26.804688 274.824219 37.582031 267.949219 46.675781 C 232.753906 90.960938 196.621094 134.460938 159.1875 176.867188 C 156.6875 179.898438 154.167969 182.867188 151.882812 185.980469 C 158.503906 195.863281 167.535156 205.617188 173.941406 213.769531 C 194.335938 238.613281 214.988281 263.265625 235.894531 287.703125 C 246.378906 299.890625 256.886719 312.054688 267.5625 324.050781 C 276.363281 334.445312 261.605469 347.890625 252.082031 337.882812 Z M 252.082031 337.882812 "
    fill-opacity="1" fill-rule="nonzero" />
  <path fill="#000000"
    d="M 187.5 0 C 83.90625 0 0 83.90625 0 187.5 C 0 291.09375 83.90625 375 187.5 375 C 291.09375 375 375 291.09375 375 187.5 C 375 83.90625 291.09375 0 187.5 0 Z M 187.5 337.5 C 104.625 337.5 37.5 270.375 37.5 187.5 C 37.5 104.625 104.625 37.5 187.5 37.5 C 270.375 37.5 337.5 104.625 337.5 187.5 C 337.5 270.375 270.375 337.5 187.5 337.5 Z M 187.5 337.5 "
    fill-opacity="1" fill-rule="nonzero" />
</svg>